<mxfile host="app.diagrams.net" modified="2024-02-01T01:02:30.849Z" agent="Mozilla/5.0 (Windows NT 10.0; Win64; x64) AppleWebKit/537.36 (KHTML, like Gecko) Chrome/120.0.0.0 Safari/537.36" etag="bz0MmwLL-8_fIO9mwvOB" version="23.1.0" type="github">
  <diagram name="Page-1" id="v1jmIcRi-8jpxYtEat7v">
    <mxGraphModel dx="1434" dy="772" grid="1" gridSize="10" guides="1" tooltips="1" connect="1" arrows="1" fold="1" page="1" pageScale="1" pageWidth="850" pageHeight="1100" math="0" shadow="0">
      <root>
        <mxCell id="0" />
        <mxCell id="1" parent="0" />
        <mxCell id="XWtUoW3_-iC-u-D6_qd_-1" value="&lt;b&gt;PerpusDigital&lt;/b&gt;" style="rounded=0;whiteSpace=wrap;html=1;align=center;verticalAlign=top;" vertex="1" parent="1">
          <mxGeometry x="160" y="50" width="520" height="690" as="geometry" />
        </mxCell>
        <mxCell id="XWtUoW3_-iC-u-D6_qd_-10" style="edgeStyle=orthogonalEdgeStyle;rounded=0;orthogonalLoop=1;jettySize=auto;html=1;exitX=1;exitY=0.3333333333333333;exitDx=0;exitDy=0;exitPerimeter=0;entryX=0.5;entryY=0;entryDx=0;entryDy=0;" edge="1" parent="1" source="XWtUoW3_-iC-u-D6_qd_-2" target="XWtUoW3_-iC-u-D6_qd_-6">
          <mxGeometry relative="1" as="geometry" />
        </mxCell>
        <mxCell id="XWtUoW3_-iC-u-D6_qd_-13" style="edgeStyle=orthogonalEdgeStyle;rounded=0;orthogonalLoop=1;jettySize=auto;html=1;exitX=1;exitY=0.3333333333333333;exitDx=0;exitDy=0;exitPerimeter=0;" edge="1" parent="1" source="XWtUoW3_-iC-u-D6_qd_-2" target="XWtUoW3_-iC-u-D6_qd_-11">
          <mxGeometry relative="1" as="geometry" />
        </mxCell>
        <mxCell id="XWtUoW3_-iC-u-D6_qd_-18" style="edgeStyle=orthogonalEdgeStyle;rounded=0;orthogonalLoop=1;jettySize=auto;html=1;exitX=1;exitY=0.3333333333333333;exitDx=0;exitDy=0;exitPerimeter=0;entryX=0;entryY=0.5;entryDx=0;entryDy=0;" edge="1" parent="1" source="XWtUoW3_-iC-u-D6_qd_-2" target="XWtUoW3_-iC-u-D6_qd_-17">
          <mxGeometry relative="1" as="geometry" />
        </mxCell>
        <mxCell id="XWtUoW3_-iC-u-D6_qd_-2" value="Pengunjung" style="shape=umlActor;verticalLabelPosition=bottom;verticalAlign=top;html=1;outlineConnect=0;" vertex="1" parent="1">
          <mxGeometry x="20" y="240" width="70" height="140" as="geometry" />
        </mxCell>
        <mxCell id="XWtUoW3_-iC-u-D6_qd_-8" style="edgeStyle=orthogonalEdgeStyle;rounded=0;orthogonalLoop=1;jettySize=auto;html=1;exitX=0;exitY=0.3333333333333333;exitDx=0;exitDy=0;exitPerimeter=0;entryX=0.5;entryY=0;entryDx=0;entryDy=0;" edge="1" parent="1" source="XWtUoW3_-iC-u-D6_qd_-3" target="XWtUoW3_-iC-u-D6_qd_-6">
          <mxGeometry relative="1" as="geometry" />
        </mxCell>
        <mxCell id="XWtUoW3_-iC-u-D6_qd_-12" style="edgeStyle=orthogonalEdgeStyle;rounded=0;orthogonalLoop=1;jettySize=auto;html=1;exitX=0;exitY=0.3333333333333333;exitDx=0;exitDy=0;exitPerimeter=0;" edge="1" parent="1" source="XWtUoW3_-iC-u-D6_qd_-3" target="XWtUoW3_-iC-u-D6_qd_-11">
          <mxGeometry relative="1" as="geometry" />
        </mxCell>
        <mxCell id="XWtUoW3_-iC-u-D6_qd_-15" style="edgeStyle=orthogonalEdgeStyle;rounded=0;orthogonalLoop=1;jettySize=auto;html=1;exitX=0;exitY=0.3333333333333333;exitDx=0;exitDy=0;exitPerimeter=0;entryX=1;entryY=0.5;entryDx=0;entryDy=0;" edge="1" parent="1" source="XWtUoW3_-iC-u-D6_qd_-3" target="XWtUoW3_-iC-u-D6_qd_-14">
          <mxGeometry relative="1" as="geometry" />
        </mxCell>
        <mxCell id="XWtUoW3_-iC-u-D6_qd_-19" style="edgeStyle=orthogonalEdgeStyle;rounded=0;orthogonalLoop=1;jettySize=auto;html=1;exitX=0;exitY=0.3333333333333333;exitDx=0;exitDy=0;exitPerimeter=0;entryX=1;entryY=0.5;entryDx=0;entryDy=0;" edge="1" parent="1" source="XWtUoW3_-iC-u-D6_qd_-3" target="XWtUoW3_-iC-u-D6_qd_-17">
          <mxGeometry relative="1" as="geometry" />
        </mxCell>
        <mxCell id="XWtUoW3_-iC-u-D6_qd_-21" style="edgeStyle=orthogonalEdgeStyle;rounded=0;orthogonalLoop=1;jettySize=auto;html=1;exitX=0;exitY=0.3333333333333333;exitDx=0;exitDy=0;exitPerimeter=0;entryX=1;entryY=0.5;entryDx=0;entryDy=0;" edge="1" parent="1" source="XWtUoW3_-iC-u-D6_qd_-3" target="XWtUoW3_-iC-u-D6_qd_-20">
          <mxGeometry relative="1" as="geometry" />
        </mxCell>
        <mxCell id="XWtUoW3_-iC-u-D6_qd_-3" value="Pustakawan" style="shape=umlActor;verticalLabelPosition=bottom;verticalAlign=top;html=1;outlineConnect=0;" vertex="1" parent="1">
          <mxGeometry x="750" y="240" width="70" height="140" as="geometry" />
        </mxCell>
        <mxCell id="XWtUoW3_-iC-u-D6_qd_-6" value="Form Pengunjung" style="ellipse;whiteSpace=wrap;html=1;" vertex="1" parent="1">
          <mxGeometry x="350" y="100" width="150" height="100" as="geometry" />
        </mxCell>
        <mxCell id="XWtUoW3_-iC-u-D6_qd_-11" value="Cari Buku" style="ellipse;whiteSpace=wrap;html=1;" vertex="1" parent="1">
          <mxGeometry x="350" y="220" width="150" height="100" as="geometry" />
        </mxCell>
        <mxCell id="XWtUoW3_-iC-u-D6_qd_-14" value="Rincian Buku" style="ellipse;whiteSpace=wrap;html=1;" vertex="1" parent="1">
          <mxGeometry x="345" y="340" width="150" height="100" as="geometry" />
        </mxCell>
        <mxCell id="XWtUoW3_-iC-u-D6_qd_-16" style="edgeStyle=orthogonalEdgeStyle;rounded=0;orthogonalLoop=1;jettySize=auto;html=1;exitX=1;exitY=0.3333333333333333;exitDx=0;exitDy=0;exitPerimeter=0;entryX=0.02;entryY=0.57;entryDx=0;entryDy=0;entryPerimeter=0;" edge="1" parent="1" source="XWtUoW3_-iC-u-D6_qd_-2" target="XWtUoW3_-iC-u-D6_qd_-14">
          <mxGeometry relative="1" as="geometry" />
        </mxCell>
        <mxCell id="XWtUoW3_-iC-u-D6_qd_-17" value="Daftar Pengunjung" style="ellipse;whiteSpace=wrap;html=1;" vertex="1" parent="1">
          <mxGeometry x="345" y="460" width="150" height="100" as="geometry" />
        </mxCell>
        <mxCell id="XWtUoW3_-iC-u-D6_qd_-20" value="Statistik Pengunjung" style="ellipse;whiteSpace=wrap;html=1;" vertex="1" parent="1">
          <mxGeometry x="345" y="590" width="150" height="100" as="geometry" />
        </mxCell>
      </root>
    </mxGraphModel>
  </diagram>
</mxfile>
